<svg width="250" height="70" viewBox="0 0 250 70" fill="none" xmlns="http://www.w3.org/2000/svg">
<path d="M4.6036 41.2V19.16L1.8836 16H12.7236C16.1103 16 18.7503 16.7467 20.6436 18.24C22.5369 19.7067 23.4836 21.7733 23.4836 24.44C23.4836 27.48 22.2169 29.8 19.6836 31.4C17.1503 33 13.4169 33.8133 8.4836 33.84V41.84L11.1636 45H2.8436L4.6036 41.2ZM8.4836 17.88V32.12C12.2703 32.04 15.0436 31.4 16.8036 30.2C18.5903 29 19.4836 27.1733 19.4836 24.72C19.4836 22.5333 18.8436 20.8533 17.5636 19.68C16.3103 18.48 14.5236 17.88 12.2036 17.88H8.4836ZM31.6855 37.8C31.6855 39.4533 32.0455 40.72 32.7655 41.6C33.5121 42.4533 34.5655 42.88 35.9255 42.88C37.4188 42.88 38.7121 42.36 39.8055 41.32C40.8988 40.28 41.6721 38.8267 42.1255 36.96V27.36L39.0055 23.8H45.8055V41.44L49.0055 45H42.5255V39.92C40.9255 43.6267 38.3255 45.48 34.7255 45.48C32.5921 45.48 30.9121 44.8267 29.6855 43.52C28.4855 42.1867 27.8855 40.3733 27.8855 38.08V27.04L25.0455 23.8H31.6855V37.8ZM56.5495 15V27.36C57.3229 25.9733 58.3362 24.9067 59.5895 24.16C60.8429 23.4133 62.2562 23.04 63.8295 23.04C65.5895 23.04 67.1229 23.5067 68.4295 24.44C69.7629 25.3467 70.7895 26.64 71.5095 28.32C72.2295 30 72.5895 31.96 72.5895 34.2C72.5895 36.4667 72.2295 38.4533 71.5095 40.16C70.7895 41.84 69.7629 43.1467 68.4295 44.08C67.0962 45.0133 65.5495 45.48 63.7895 45.48C62.1362 45.48 60.6562 45.0667 59.3495 44.24C58.0695 43.4133 57.0695 42.2667 56.3495 40.8L55.9895 45H52.7495V18.24L49.9095 15H56.5495ZM56.5495 38.52C57.0295 39.8267 57.7895 40.8533 58.8295 41.6C59.8695 42.3467 61.0695 42.72 62.4295 42.72C64.3495 42.72 65.8562 41.96 66.9495 40.44C68.0695 38.92 68.6295 36.8533 68.6295 34.24C68.6295 31.6267 68.0695 29.56 66.9495 28.04C65.8562 26.52 64.3495 25.76 62.4295 25.76C61.0695 25.76 59.8695 26.1467 58.8295 26.92C57.7895 27.6667 57.0295 28.6933 56.5495 30V38.52ZM77.4667 41.28V18.8L74.0667 15H81.2667V41.96L83.9067 45H75.7467L77.4667 41.28ZM90.4998 15.08C91.1665 15.08 91.7265 15.3067 92.1798 15.76C92.6332 16.2133 92.8598 16.7867 92.8598 17.48C92.8598 18.1733 92.6332 18.7467 92.1798 19.2C91.7532 19.6533 91.1932 19.88 90.4998 19.88C89.8065 19.88 89.2332 19.6533 88.7798 19.2C88.3532 18.7467 88.1398 18.1733 88.1398 17.48C88.1398 16.7867 88.3665 16.2133 88.8198 15.76C89.2732 15.3067 89.8332 15.08 90.4998 15.08ZM88.6198 41.28V27.6L85.2198 23.8H92.4198V41.96L95.0598 45H86.8998L88.6198 41.28ZM117.377 39.92C115.27 43.6267 112.083 45.48 107.817 45.48C105.71 45.48 103.843 45.04 102.217 44.16C100.617 43.28 99.3634 42.04 98.4567 40.44C97.5767 38.84 97.1367 36.96 97.1367 34.8C97.1367 32.5867 97.6034 30.5867 98.5367 28.8C99.4701 27.0133 100.75 25.6133 102.377 24.6C104.03 23.56 105.883 23.04 107.937 23.04C109.457 23.04 110.843 23.32 112.097 23.88C113.377 24.44 114.377 25.2 115.097 26.16C115.843 27.0933 116.217 28.12 116.217 29.24C116.217 29.96 116.043 30.52 115.697 30.92C115.377 31.2933 114.91 31.48 114.297 31.48C113.683 31.48 113.217 31.2933 112.897 30.92C112.577 30.52 112.377 29.8933 112.297 29.04C111.977 26.3733 110.55 25.04 108.017 25.04C105.937 25.04 104.27 25.8533 103.017 27.48C101.763 29.1067 101.137 31.2667 101.137 33.96C101.137 36.84 101.857 39.08 103.297 40.68C104.737 42.28 106.737 43.08 109.297 43.08C112.23 43.08 114.803 41.9333 117.017 39.64L117.377 39.92ZM149.921 36.32V45.48L147.521 42.56C146.614 43.4933 145.494 44.2133 144.161 44.72C142.827 45.2267 141.347 45.48 139.721 45.48C137.161 45.48 134.934 44.88 133.041 43.68C131.147 42.48 129.694 40.7733 128.681 38.56C127.667 36.3467 127.161 33.7333 127.161 30.72C127.161 27.6533 127.667 24.9733 128.681 22.68C129.721 20.36 131.187 18.5733 133.081 17.32C134.974 16.0667 137.174 15.44 139.681 15.44C140.961 15.44 142.161 15.6 143.281 15.92C144.427 16.2133 145.427 16.64 146.281 17.2L148.761 15.6V24.56L146.521 21.16C144.654 18.3867 142.414 17 139.801 17C138.147 17 136.681 17.56 135.401 18.68C134.147 19.8 133.174 21.3867 132.481 23.44C131.787 25.4933 131.441 27.8667 131.441 30.56C131.441 33.28 131.787 35.64 132.481 37.64C133.201 39.6133 134.227 41.1333 135.561 42.2C136.894 43.2667 138.467 43.8 140.281 43.8C141.587 43.8 142.801 43.52 143.921 42.96C145.041 42.4 145.947 41.64 146.641 40.68V35.88L143.161 32.52H151.681L149.921 36.32ZM154.346 34.4C154.346 32.1067 154.799 30.1067 155.706 28.4C156.639 26.6667 157.933 25.3467 159.586 24.44C161.266 23.5067 163.213 23.04 165.426 23.04C167.666 23.04 169.626 23.4933 171.306 24.4C172.986 25.3067 174.279 26.6133 175.186 28.32C176.093 30.0267 176.546 32.0267 176.546 34.32C176.546 36.5867 176.093 38.56 175.186 40.24C174.306 41.92 173.026 43.2133 171.346 44.12C169.693 45.0267 167.719 45.48 165.426 45.48C163.159 45.48 161.186 45.0267 159.506 44.12C157.853 43.2133 156.573 41.9333 155.666 40.28C154.786 38.6 154.346 36.64 154.346 34.4ZM172.506 34.32C172.506 31.3333 171.879 29.0267 170.626 27.4C169.373 25.7467 167.639 24.92 165.426 24.92C163.213 24.92 161.493 25.7333 160.266 27.36C159.039 28.9867 158.426 31.3067 158.426 34.32C158.426 37.3067 159.013 39.6 160.186 41.2C161.386 42.7733 163.133 43.56 165.426 43.56C167.693 43.56 169.439 42.76 170.666 41.16C171.893 39.56 172.506 37.28 172.506 34.32ZM179.445 34.4C179.445 32.1067 179.898 30.1067 180.805 28.4C181.738 26.6667 183.031 25.3467 184.685 24.44C186.365 23.5067 188.311 23.04 190.525 23.04C192.765 23.04 194.725 23.4933 196.405 24.4C198.085 25.3067 199.378 26.6133 200.285 28.32C201.191 30.0267 201.645 32.0267 201.645 34.32C201.645 36.5867 201.191 38.56 200.285 40.24C199.405 41.92 198.125 43.2133 196.445 44.12C194.791 45.0267 192.818 45.48 190.525 45.48C188.258 45.48 186.285 45.0267 184.605 44.12C182.951 43.2133 181.671 41.9333 180.765 40.28C179.885 38.6 179.445 36.64 179.445 34.4ZM197.605 34.32C197.605 31.3333 196.978 29.0267 195.725 27.4C194.471 25.7467 192.738 24.92 190.525 24.92C188.311 24.92 186.591 25.7333 185.365 27.36C184.138 28.9867 183.525 31.3067 183.525 34.32C183.525 37.3067 184.111 39.6 185.285 41.2C186.485 42.7733 188.231 43.56 190.525 43.56C192.791 43.56 194.538 42.76 195.765 41.16C196.991 39.56 197.605 37.28 197.605 34.32ZM213.343 45.48C211.583 45.48 210.036 45.0133 208.703 44.08C207.37 43.1467 206.343 41.8267 205.623 40.12C204.903 38.4133 204.543 36.44 204.543 34.2C204.543 31.96 204.903 30 205.623 28.32C206.343 26.64 207.356 25.3467 208.663 24.44C209.996 23.5067 211.543 23.04 213.303 23.04C214.876 23.04 216.29 23.4267 217.543 24.2C218.796 24.9467 219.81 26.0133 220.583 27.4V18.8L217.183 15H224.423V41.96L227.023 45H220.943V40.36C220.25 41.96 219.236 43.2133 217.903 44.12C216.57 45.0267 215.05 45.48 213.343 45.48ZM214.743 42.72C216.076 42.72 217.263 42.3467 218.303 41.6C219.343 40.8533 220.103 39.8267 220.583 38.52V30C220.103 28.6933 219.343 27.6667 218.303 26.92C217.263 26.1467 216.076 25.76 214.743 25.76C212.823 25.76 211.303 26.52 210.183 28.04C209.09 29.56 208.543 31.6267 208.543 34.24C208.543 36.8533 209.09 38.92 210.183 40.44C211.303 41.96 212.823 42.72 214.743 42.72ZM229.77 39.32L233.13 41.16C234.597 41.96 235.917 42.5467 237.09 42.92C238.29 43.2667 239.463 43.44 240.61 43.44C241.943 43.44 242.943 43.2133 243.61 42.76C244.277 42.28 244.61 41.5467 244.61 40.56C244.61 39.4933 244.117 38.6133 243.13 37.92C242.17 37.2267 240.463 36.5333 238.01 35.84C235.157 35.0933 233.063 34.1333 231.73 32.96C230.397 31.7867 229.73 30.3333 229.73 28.6C229.73 26.8667 230.303 25.5067 231.45 24.52C232.597 23.5333 234.157 23.04 236.13 23.04C238.45 23.04 240.663 23.76 242.77 25.2L246.09 23.56V29.64L243.13 27.6C240.703 25.8667 238.463 25 236.41 25C235.263 25 234.383 25.24 233.77 25.72C233.183 26.2 232.89 26.8933 232.89 27.8C232.89 28.8667 233.357 29.7333 234.29 30.4C235.25 31.04 236.903 31.6667 239.25 32.28C242.263 33.0267 244.45 33.9733 245.81 35.12C247.197 36.2667 247.89 37.7467 247.89 39.56C247.89 41.4267 247.25 42.88 245.97 43.92C244.717 44.96 242.943 45.48 240.65 45.48C238.197 45.48 235.85 44.8 233.61 43.44L229.77 45.4V39.32Z" fill="white"/>
<path d="M232.004 4.012C231.78 4.188 231.604 4.412 231.476 4.684C231.356 4.948 231.304 5.208 231.32 5.464H231.452C231.62 5.464 231.764 5.52 231.884 5.632C232.004 5.744 232.064 5.88 232.064 6.04C232.064 6.2 232.004 6.34 231.884 6.46C231.772 6.572 231.632 6.628 231.464 6.628C231.248 6.628 231.072 6.536 230.936 6.352C230.8 6.168 230.732 5.94 230.732 5.668C230.732 5.324 230.836 4.992 231.044 4.672C231.252 4.344 231.532 4.076 231.884 3.868L232.004 4.012ZM236.146 10.528C236.89 9.832 237.454 9.148 237.838 8.476C238.222 7.796 238.414 7.152 238.414 6.544C238.414 5.952 238.242 5.488 237.898 5.152C237.554 4.808 237.082 4.636 236.482 4.636C235.882 4.636 235.414 4.812 235.078 5.164C234.75 5.508 234.574 5.988 234.55 6.604C234.542 6.892 234.498 7.096 234.418 7.216C234.346 7.336 234.234 7.396 234.082 7.396C233.77 7.396 233.614 7.148 233.614 6.652C233.614 6.172 233.738 5.74 233.986 5.356C234.242 4.972 234.598 4.672 235.054 4.456C235.51 4.24 236.026 4.132 236.602 4.132C237.442 4.132 238.106 4.348 238.594 4.78C239.09 5.212 239.338 5.804 239.338 6.556C239.338 7.204 239.122 7.86 238.69 8.524C238.266 9.18 237.542 9.964 236.518 10.876L235.114 12.184H238.366L239.494 10.888V13H233.494L236.146 10.528ZM243.215 10.528C243.959 9.832 244.523 9.148 244.907 8.476C245.291 7.796 245.483 7.152 245.483 6.544C245.483 5.952 245.311 5.488 244.967 5.152C244.623 4.808 244.151 4.636 243.551 4.636C242.951 4.636 242.483 4.812 242.147 5.164C241.819 5.508 241.643 5.988 241.619 6.604C241.611 6.892 241.567 7.096 241.487 7.216C241.415 7.336 241.303 7.396 241.151 7.396C240.839 7.396 240.683 7.148 240.683 6.652C240.683 6.172 240.807 5.74 241.055 5.356C241.311 4.972 241.667 4.672 242.123 4.456C242.579 4.24 243.095 4.132 243.671 4.132C244.511 4.132 245.175 4.348 245.663 4.78C246.159 5.212 246.407 5.804 246.407 6.556C246.407 7.204 246.191 7.86 245.759 8.524C245.335 9.18 244.611 9.964 243.587 10.876L242.183 12.184H245.435L246.563 10.888V13H240.563L243.215 10.528Z" fill="white"/>
<path d="M1.27841 61.3182C1.27841 60.2443 1.41761 59.2571 1.69602 58.3565C1.97727 57.4531 2.37784 56.6222 2.89773 55.8636H3.78409C3.57955 56.1449 3.38778 56.4915 3.20881 56.9034C3.03267 57.3125 2.87784 57.7628 2.74432 58.2543C2.6108 58.7429 2.50568 59.2486 2.42898 59.7713C2.35511 60.294 2.31818 60.8097 2.31818 61.3182C2.31818 61.9943 2.38352 62.6804 2.5142 63.3764C2.64489 64.0724 2.82102 64.7187 3.04261 65.3153C3.2642 65.9119 3.51136 66.3977 3.78409 66.7727H2.89773C2.37784 66.0142 1.97727 65.1847 1.69602 64.2841C1.41761 63.3807 1.27841 62.392 1.27841 61.3182ZM19.5045 65V56.2727H22.4533C23.138 56.2727 23.6977 56.3963 24.1323 56.6435C24.5698 56.8878 24.8937 57.2188 25.1039 57.6364C25.3141 58.054 25.4192 58.5199 25.4192 59.0341C25.4192 59.5483 25.3141 60.0156 25.1039 60.4361C24.8965 60.8565 24.5755 61.1918 24.1408 61.4418C23.7062 61.6889 23.1494 61.8125 22.4704 61.8125H20.3567V60.875H22.4363C22.905 60.875 23.2815 60.794 23.5656 60.6321C23.8496 60.4702 24.0556 60.2514 24.1835 59.9759C24.3141 59.6974 24.3795 59.3835 24.3795 59.0341C24.3795 58.6847 24.3141 58.3722 24.1835 58.0966C24.0556 57.821 23.8482 57.6051 23.5613 57.4489C23.2744 57.2898 22.8937 57.2102 22.4192 57.2102H20.5613V65H19.5045ZM33.2076 59C33.1138 58.7131 32.9902 58.456 32.8368 58.2287C32.6863 57.9986 32.5059 57.8026 32.2956 57.6406C32.0883 57.4787 31.8525 57.3551 31.5883 57.2699C31.324 57.1847 31.0343 57.142 30.7189 57.142C30.2019 57.142 29.7317 57.2756 29.3084 57.5426C28.8851 57.8097 28.5485 58.2031 28.2985 58.723C28.0485 59.2429 27.9235 59.8807 27.9235 60.6364C27.9235 61.392 28.0499 62.0298 28.3027 62.5497C28.5556 63.0696 28.8979 63.4631 29.3297 63.7301C29.7615 63.9972 30.2473 64.1307 30.7871 64.1307C31.2871 64.1307 31.7275 64.0241 32.1081 63.8111C32.4917 63.5952 32.79 63.2912 33.003 62.8991C33.2189 62.5043 33.3269 62.0398 33.3269 61.5057L33.6508 61.5739H31.0258V60.6364H34.3496V61.5739C34.3496 62.2926 34.1962 62.9176 33.8894 63.4489C33.5854 63.9801 33.165 64.392 32.628 64.6847C32.0939 64.9744 31.4803 65.1193 30.7871 65.1193C30.0144 65.1193 29.3354 64.9375 28.7502 64.5739C28.1678 64.2102 27.7133 63.6932 27.3865 63.0227C27.0627 62.3523 26.9008 61.5568 26.9008 60.6364C26.9008 59.946 26.9931 59.3253 27.1777 58.7741C27.3652 58.2202 27.6294 57.7486 27.9704 57.3594C28.3113 56.9702 28.7147 56.6719 29.1806 56.4645C29.6465 56.2571 30.1593 56.1534 30.7189 56.1534C31.1792 56.1534 31.6081 56.223 32.0059 56.3622C32.4064 56.4986 32.763 56.6932 33.0755 56.946C33.3908 57.196 33.6536 57.4957 33.8638 57.8452C34.074 58.1918 34.2189 58.5767 34.2985 59H33.2076ZM42.4678 65H39.7746V56.2727H42.5871C43.4337 56.2727 44.1582 56.4474 44.7604 56.7969C45.3627 57.1435 45.8243 57.642 46.1454 58.2926C46.4664 58.9403 46.6269 59.7159 46.6269 60.6193C46.6269 61.5284 46.465 62.3111 46.1411 62.9673C45.8172 63.6207 45.3457 64.1236 44.7263 64.4759C44.107 64.8253 43.3542 65 42.4678 65ZM40.8314 64.0625H42.3996C43.1212 64.0625 43.7192 63.9233 44.1937 63.6449C44.6681 63.3665 45.0218 62.9702 45.2547 62.456C45.4877 61.9418 45.6042 61.3295 45.6042 60.6193C45.6042 59.9148 45.4891 59.3082 45.259 58.7997C45.0289 58.2884 44.6851 57.8963 44.2278 57.6236C43.7704 57.348 43.2008 57.2102 42.5189 57.2102H40.8314V64.0625ZM48.4674 65H47.3595L50.564 56.2727H51.6549L54.8595 65H53.7515L51.1436 57.6534H51.0754L48.4674 65ZM48.8765 61.5909H53.3424V62.5284H48.8765V61.5909ZM63.2923 60.6364C63.2923 61.5568 63.1261 62.3523 62.7938 63.0227C62.4614 63.6932 62.0054 64.2102 61.4259 64.5739C60.8463 64.9375 60.1844 65.1193 59.4401 65.1193C58.6957 65.1193 58.0338 64.9375 57.4543 64.5739C56.8747 64.2102 56.4188 63.6932 56.0864 63.0227C55.754 62.3523 55.5878 61.5568 55.5878 60.6364C55.5878 59.7159 55.754 58.9205 56.0864 58.25C56.4188 57.5795 56.8747 57.0625 57.4543 56.6989C58.0338 56.3352 58.6957 56.1534 59.4401 56.1534C60.1844 56.1534 60.8463 56.3352 61.4259 56.6989C62.0054 57.0625 62.4614 57.5795 62.7938 58.25C63.1261 58.9205 63.2923 59.7159 63.2923 60.6364ZM62.2696 60.6364C62.2696 59.8807 62.1432 59.2429 61.8903 58.723C61.6403 58.2031 61.3009 57.8097 60.8719 57.5426C60.4457 57.2756 59.9685 57.142 59.4401 57.142C58.9116 57.142 58.433 57.2756 58.004 57.5426C57.5778 57.8097 57.2384 58.2031 56.9855 58.723C56.7355 59.2429 56.6105 59.8807 56.6105 60.6364C56.6105 61.392 56.7355 62.0298 56.9855 62.5497C57.2384 63.0696 57.5778 63.4631 58.004 63.7301C58.433 63.9972 58.9116 64.1307 59.4401 64.1307C59.9685 64.1307 60.4457 63.9972 60.8719 63.7301C61.3009 63.4631 61.6403 63.0696 61.8903 62.5497C62.1432 62.0298 62.2696 61.392 62.2696 60.6364ZM67.2007 60.6364C67.2007 61.7102 67.0601 62.6989 66.7788 63.6023C66.5004 64.5028 66.1012 65.3324 65.5814 66.0909H64.695C64.8995 65.8097 65.0899 65.4631 65.266 65.0511C65.445 64.642 65.6012 64.1932 65.7348 63.7045C65.8683 63.2131 65.972 62.706 66.0459 62.1832C66.1226 61.6577 66.1609 61.142 66.1609 60.6364C66.1609 59.9602 66.0956 59.2741 65.9649 58.5781C65.8342 57.8821 65.6581 57.2358 65.4365 56.6392C65.2149 56.0426 64.9677 55.5568 64.695 55.1818H65.5814C66.1012 55.9403 66.5004 56.7713 66.7788 57.6747C67.0601 58.5753 67.2007 59.5625 67.2007 60.6364Z" fill="white"/>
<path d="M11 56C11.0583 57.4537 11.6302 58.922 12.5792 59.8321C13.5263 60.759 14.7951 61.0538 16 60.9922" stroke="white" stroke-width="0.8" stroke-miterlimit="10"/>
<path d="M5 60.9922C6.20463 61.0538 7.47226 60.7579 8.41922 59.831C9.36712 58.9209 9.94076 57.4537 10 56" stroke="white" stroke-width="0.8" stroke-miterlimit="10"/>
<path d="M11.0079 57C10.9319 58.5665 11.4069 60.2331 12.3289 61.3994C13.2453 62.5882 14.6442 63.0993 16 62.9842" stroke="white" stroke-width="0.8" stroke-miterlimit="10"/>
<path d="M5 62.9879C5.67789 63.0331 6.36516 62.9556 7.00361 62.6897C8.99502 61.8984 10.1114 59.3297 9.9912 57" stroke="white" stroke-width="0.8" stroke-miterlimit="10"/>
<path d="M10.5508 56V65" stroke="white" stroke-width="0.8" stroke-miterlimit="10"/>
</svg>
