<svg width="1688" height="226" viewBox="0 0 1688 226" fill="none" xmlns="http://www.w3.org/2000/svg">
<path d="M20.1017 193.627V30.7438L0 7.39035H80.1113C105.14 7.39035 124.65 12.9085 138.643 23.9447C152.635 34.7839 159.631 50.0573 159.631 69.7648C159.631 92.2315 150.27 109.377 131.548 121.202C112.826 133.026 85.2353 139.037 48.7762 139.234V198.357L68.5824 221.71H7.09473L20.1017 193.627ZM48.7762 21.2842V126.523C76.761 125.931 97.2569 121.202 110.264 112.333C123.468 103.465 130.07 89.9651 130.07 71.8341C130.07 55.6739 125.34 43.2581 115.881 34.5868C106.618 25.7184 93.4139 21.2842 76.2683 21.2842H48.7762Z" fill="#225350"/>
<path d="M208.421 168.5C208.421 180.718 211.082 190.08 216.403 196.583C221.921 202.889 229.706 206.043 239.756 206.043C250.793 206.043 260.351 202.2 268.431 194.514C276.511 186.828 282.226 176.087 285.577 162.292V91.3446L262.519 65.035H312.773V195.401L336.422 221.71H288.533V184.167C276.708 211.561 257.493 225.258 230.888 225.258C215.122 225.258 202.706 220.429 193.641 210.773C184.772 200.919 180.338 187.518 180.338 170.569V88.9797L159.35 65.035H208.421V168.5Z" fill="#225350"/>
<path d="M380.351 0V91.3446C386.066 81.0967 393.555 73.2136 402.817 67.6955C412.08 62.1774 422.525 59.4183 434.152 59.4183C447.159 59.4183 458.491 62.8672 468.148 69.7648C478.002 76.4654 485.589 86.0236 490.91 98.4393C496.231 110.855 498.892 125.34 498.892 141.895C498.892 158.646 496.231 173.328 490.91 185.941C485.589 198.357 478.002 208.013 468.148 214.911C458.294 221.809 446.864 225.258 433.857 225.258C421.638 225.258 410.7 222.203 401.044 216.094C391.584 209.984 384.194 201.51 378.873 190.671L376.212 221.71H352.267V23.9447L331.279 0H380.351ZM380.351 173.821C383.898 183.478 389.515 191.065 397.201 196.583C404.887 202.101 413.755 204.86 423.806 204.86C437.995 204.86 449.13 199.244 457.21 188.01C465.487 176.777 469.626 161.504 469.626 142.19C469.626 122.877 465.487 107.603 457.21 96.37C449.13 85.1367 437.995 79.5201 423.806 79.5201C413.755 79.5201 404.887 82.3777 397.201 88.0929C389.515 93.611 383.898 101.198 380.351 110.855V173.821Z" fill="#225350"/>
<path d="M523.111 194.218V28.0833L497.984 0H551.195V199.244L570.705 221.71H510.4L523.111 194.218Z" fill="#225350"/>
<path d="M607.606 0.591237C612.533 0.591237 616.672 2.26638 620.022 5.61667C623.372 8.96695 625.047 13.2041 625.047 18.3281C625.047 23.452 623.372 27.6891 620.022 31.0394C616.869 34.3897 612.73 36.0649 607.606 36.0649C602.482 36.0649 598.245 34.3897 594.895 31.0394C591.741 27.6891 590.165 23.452 590.165 18.3281C590.165 13.2041 591.84 8.96695 595.19 5.61667C598.541 2.26638 602.679 0.591237 607.606 0.591237ZM593.712 194.218V93.1183L568.585 65.035H621.796V199.244L641.306 221.71H581.001L593.712 194.218Z" fill="#225350"/>
<path d="M794.411 184.167C778.842 211.561 755.291 225.258 723.759 225.258C708.19 225.258 694.395 222.006 682.373 215.502C670.549 208.999 661.286 199.835 654.586 188.01C648.082 176.186 644.83 162.292 644.83 146.329C644.83 129.971 648.279 115.191 655.177 101.987C662.074 88.7826 671.534 78.4361 683.556 70.9473C695.774 63.2613 709.471 59.4183 724.646 59.4183C735.879 59.4183 746.127 61.4876 755.39 65.6262C764.849 69.7648 772.24 75.3815 777.561 82.4762C783.079 89.3739 785.838 96.9613 785.838 105.238C785.838 110.559 784.557 114.698 781.995 117.654C779.63 120.413 776.181 121.793 771.648 121.793C767.116 121.793 763.667 120.413 761.302 117.654C758.937 114.698 757.459 110.067 756.868 103.76C754.503 84.0528 743.959 74.199 725.237 74.199C709.865 74.199 697.548 80.2098 688.285 92.2315C679.023 104.253 674.392 120.216 674.392 140.121C674.392 161.405 679.713 177.959 690.355 189.784C700.997 201.608 715.778 207.521 734.697 207.521C756.375 207.521 775.393 199.047 791.75 182.098L794.411 184.167Z" fill="#225350"/>
<path d="M1011.27 157.562V225.258L993.537 203.678C986.836 210.575 978.559 215.896 968.705 219.641C958.851 223.385 947.914 225.258 935.892 225.258C916.973 225.258 900.517 220.823 886.524 211.955C872.532 203.087 861.791 190.474 854.303 174.116C846.814 157.759 843.069 138.446 843.069 116.176C843.069 93.5124 846.814 73.7063 854.303 56.7578C861.989 39.6122 872.828 26.4082 886.82 17.1456C900.812 7.88304 917.071 3.25176 935.596 3.25176C945.056 3.25176 953.924 4.43421 962.201 6.79911C970.676 8.96695 978.066 12.1202 984.373 16.2588L1002.7 4.43422V70.6517L986.146 45.5245C972.351 25.0286 955.797 14.7807 936.483 14.7807C924.264 14.7807 913.425 18.9193 903.966 27.1965C894.703 35.4736 887.51 47.1996 882.386 62.3745C877.262 77.5493 874.7 95.0891 874.7 114.994C874.7 135.095 877.262 152.537 882.386 167.317C887.707 181.901 895.294 193.134 905.148 201.017C915.002 208.9 926.629 212.842 940.03 212.842C949.687 212.842 958.654 210.773 966.931 206.634C975.209 202.495 981.909 196.879 987.033 189.784V154.31L961.315 129.479H1024.28L1011.27 157.562Z" fill="#225350"/>
<path d="M1032.15 143.373C1032.15 126.424 1035.5 111.643 1042.2 99.0306C1049.1 86.2206 1058.66 76.4654 1070.88 69.7648C1083.29 62.8672 1097.68 59.4183 1114.04 59.4183C1130.59 59.4183 1145.08 62.7686 1157.49 69.4692C1169.91 76.1698 1179.47 85.8265 1186.17 98.4393C1192.87 111.052 1196.22 125.833 1196.22 142.781C1196.22 159.533 1192.87 174.116 1186.17 186.532C1179.66 198.948 1170.2 208.506 1157.79 215.207C1145.57 221.907 1130.99 225.258 1114.04 225.258C1097.29 225.258 1082.7 221.907 1070.29 215.207C1058.07 208.506 1048.61 199.047 1041.91 186.828C1035.41 174.412 1032.15 159.927 1032.15 143.373ZM1166.36 142.781C1166.36 120.709 1161.73 103.662 1152.47 91.6402C1143.21 79.4215 1130.4 73.3122 1114.04 73.3122C1097.68 73.3122 1084.97 79.323 1075.9 91.3446C1066.84 103.366 1062.31 120.512 1062.31 142.781C1062.31 164.854 1066.64 181.802 1075.31 193.627C1084.18 205.254 1097.09 211.068 1114.04 211.068C1130.79 211.068 1143.7 205.156 1152.76 193.331C1161.83 181.507 1166.36 164.657 1166.36 142.781Z" fill="#225350"/>
<path d="M1205.81 143.373C1205.81 126.424 1209.17 111.643 1215.87 99.0306C1222.76 86.2206 1232.32 76.4654 1244.54 69.7648C1256.96 62.8672 1271.34 59.4183 1287.7 59.4183C1304.25 59.4183 1318.74 62.7686 1331.16 69.4692C1343.57 76.1698 1353.13 85.8265 1359.83 98.4393C1366.53 111.052 1369.88 125.833 1369.88 142.781C1369.88 159.533 1366.53 174.116 1359.83 186.532C1353.33 198.948 1343.87 208.506 1331.45 215.207C1319.23 221.907 1304.65 225.258 1287.7 225.258C1270.95 225.258 1256.36 221.907 1243.95 215.207C1231.73 208.506 1222.27 199.047 1215.57 186.828C1209.07 174.412 1205.81 159.927 1205.81 143.373ZM1340.02 142.781C1340.02 120.709 1335.39 103.662 1326.13 91.6402C1316.87 79.4215 1304.06 73.3122 1287.7 73.3122C1271.34 73.3122 1258.63 79.323 1249.57 91.3446C1240.5 103.366 1235.97 120.512 1235.97 142.781C1235.97 164.854 1240.3 181.802 1248.97 193.627C1257.84 205.254 1270.75 211.068 1287.7 211.068C1304.45 211.068 1317.36 205.156 1326.43 193.331C1335.49 181.507 1340.02 164.657 1340.02 142.781Z" fill="#225350"/>
<path d="M1444.51 225.258C1431.5 225.258 1420.07 221.809 1410.22 214.911C1400.37 208.013 1392.78 198.258 1387.46 185.645C1382.14 173.033 1379.48 158.449 1379.48 141.895C1379.48 125.34 1382.14 110.855 1387.46 98.4393C1392.78 86.0236 1400.27 76.4654 1409.92 69.7648C1419.78 62.8672 1431.21 59.4183 1444.22 59.4183C1455.84 59.4183 1466.29 62.2759 1475.55 67.9911C1484.81 73.5093 1492.3 81.3923 1498.02 91.6402V28.0833L1472.89 0H1526.4V199.244L1545.61 221.71H1500.68V187.419C1495.55 199.244 1488.06 208.506 1478.21 215.207C1468.36 221.907 1457.12 225.258 1444.51 225.258ZM1454.86 204.86C1464.71 204.86 1473.48 202.101 1481.17 196.583C1488.85 191.065 1494.47 183.478 1498.02 173.821V110.855C1494.47 101.198 1488.85 93.611 1481.17 88.0929C1473.48 82.3777 1464.71 79.5201 1454.86 79.5201C1440.67 79.5201 1429.44 85.1367 1421.16 96.37C1413.08 107.603 1409.04 122.877 1409.04 142.19C1409.04 161.504 1413.08 176.777 1421.16 188.01C1429.44 199.244 1440.67 204.86 1454.86 204.86Z" fill="#225350"/>
<path d="M1554.09 179.733L1578.92 193.331C1589.76 199.244 1599.51 203.579 1608.18 206.338C1617.05 208.9 1625.72 210.181 1634.2 210.181C1644.05 210.181 1651.44 208.506 1656.37 205.156C1661.3 201.608 1663.76 196.189 1663.76 188.897C1663.76 181.014 1660.11 174.511 1652.82 169.387C1645.73 164.263 1633.11 159.139 1614.98 154.015C1593.9 148.497 1578.43 141.402 1568.57 132.731C1558.72 124.059 1553.79 113.319 1553.79 100.509C1553.79 87.6987 1558.03 77.6479 1566.5 70.356C1574.98 63.0642 1586.51 59.4183 1601.09 59.4183C1618.23 59.4183 1634.59 64.7394 1650.16 75.3815L1674.7 63.2613V108.195L1652.82 93.1183C1634.89 80.3084 1618.33 73.9034 1603.16 73.9034C1594.68 73.9034 1588.18 75.6771 1583.65 79.2244C1579.31 82.7718 1577.14 87.8958 1577.14 94.5964C1577.14 102.479 1580.59 108.884 1587.49 113.811C1594.59 118.541 1606.8 123.172 1624.15 127.705C1646.42 133.223 1662.58 140.219 1672.63 148.694C1682.88 157.168 1688 168.106 1688 181.507C1688 195.302 1683.27 206.043 1673.81 213.729C1664.55 221.415 1651.44 225.258 1634.49 225.258C1616.36 225.258 1599.02 220.232 1582.47 210.181L1554.09 224.666V179.733Z" fill="#225350"/>
</svg>
