<svg width="68" height="50" viewBox="0 0 68 50" fill="none" xmlns="http://www.w3.org/2000/svg">
<path fill-rule="evenodd" clip-rule="evenodd" d="M29.4632 18.9297C28.4172 20.178 27.2536 21.3543 25.9763 22.4421C19.1251 28.3474 9.54041 30.8632 0.249023 31.1368V23.4421C7.76308 23.7316 15.6701 22.3421 21.577 17.9895C27.4897 13.7158 31.0678 6.82632 31.4373 0H31.6639H31.8725H36.13H36.3565H36.5651C36.9288 6.82632 40.4952 13.7211 46.4137 17.9947C52.3205 22.3474 60.2335 23.7316 67.7475 23.4421V31.1368C65.4599 31.0316 63.1664 30.8789 60.8787 30.5105C52.0719 29.3085 43.9196 25.2407 38.5868 19.0256C39.9931 22.5069 42.0924 25.7515 44.8159 28.4489C50.5409 34.2647 59.2809 36.7647 67.7511 36.2016V41.7279C57.9611 41.3384 47.9599 37.8279 41.6836 30.9016C39.218 28.2261 37.2741 25.2792 35.7831 22.1587C35.8489 23.1063 35.9214 24.0534 35.9987 25C36.7436 33.579 38.1514 42.1474 42.4217 50H25.5928C27.8394 45.9632 29.1474 41.8 30.1798 37.5C31.3105 32.4337 31.9318 27.2975 32.26 22.1456C26.9082 33.4068 16.2167 41.076 0.249023 41.7279V36.2016C4.48411 36.4226 8.77786 36.0437 12.7666 34.7437C20.8398 32.2334 26.611 26.0643 29.4632 18.9297Z" fill="white"/>
</svg>
